<svg width="32" height="32" viewBox="0 0 32 32" fill="none" xmlns="http://www.w3.org/2000/svg">
<path d="M5 7.99756V13.9976H11" stroke="white" stroke-width="1.5" stroke-linecap="round" stroke-linejoin="round"/>
<path d="M27 23.9976V17.9976H21" stroke="white" stroke-width="1.5" stroke-linecap="round" stroke-linejoin="round"/>
<path d="M24.49 12.9976C23.9828 11.5644 23.1209 10.283 21.9845 9.27305C20.8482 8.26307 19.4745 7.5574 17.9917 7.22189C16.5089 6.88639 14.9652 6.93198 13.5048 7.35441C12.0444 7.77684 10.7147 8.56235 9.64 9.63763L5 13.9976M27 17.9976L22.36 22.3576C21.2853 23.4329 19.9556 24.2184 18.4952 24.6409C17.0348 25.0633 15.4911 25.1089 14.0083 24.7734C12.5255 24.4379 11.1518 23.7322 10.0155 22.7222C8.87913 21.7122 8.01717 20.4308 7.51 18.9976" stroke="white" stroke-width="1.5" stroke-linecap="round" stroke-linejoin="round"/>
</svg>
