<svg width="16" height="16" viewBox="0 0 16 16" fill="none" xmlns="http://www.w3.org/2000/svg">
<path d="M1 3.59863V7.19863H4.6" stroke="#C5C5D1" stroke-width="0.899999" stroke-linecap="round" stroke-linejoin="round"/>
<path d="M14.2001 13.1986V9.59863H10.6001" stroke="#C5C5D1" stroke-width="0.899999" stroke-linecap="round" stroke-linejoin="round"/>
<path d="M12.694 6.59857C12.3897 5.73865 11.8725 4.96982 11.1907 4.36383C10.5089 3.75784 9.68472 3.33444 8.79503 3.13314C7.90534 2.93183 6.97915 2.95919 6.10289 3.21264C5.22662 3.4661 4.42885 3.93741 3.784 4.58258L1 7.19857M14.2 9.59857L11.416 12.2146C10.7712 12.8597 9.97338 13.331 9.09711 13.5845C8.22085 13.838 7.29466 13.8653 6.40497 13.664C5.51528 13.4627 4.69108 13.0393 4.00928 12.4333C3.32748 11.8273 2.8103 11.0585 2.506 10.1986" stroke="#C5C5D1" stroke-width="0.899999" stroke-linecap="round" stroke-linejoin="round"/>
</svg>
