<svg width="26" height="21" viewBox="0 0 26 21" fill="none" xmlns="http://www.w3.org/2000/svg">
<path d="M21.6961 2.1087C21.6892 2.09524 21.6777 2.08469 21.6636 2.07894C20.0427 1.33526 18.3322 0.804955 16.5749 0.501301C16.559 0.498333 16.5425 0.500474 16.5278 0.50742C16.5131 0.514366 16.501 0.525764 16.4932 0.539991C16.2602 0.962735 16.0488 1.39696 15.8597 1.84102C13.9654 1.55347 12.0385 1.55347 10.1442 1.84102C9.95384 1.39583 9.73902 0.961499 9.50075 0.539991C9.49258 0.526073 9.4804 0.514938 9.46581 0.508037C9.45122 0.501136 9.43489 0.498788 9.41895 0.501301C7.66145 0.804318 5.95083 1.33466 4.33015 2.07899C4.31628 2.08487 4.30457 2.09491 4.29665 2.10773C1.05561 6.94779 0.167765 11.6689 0.603311 16.3315C0.604536 16.3429 0.608047 16.3539 0.613635 16.364C0.619222 16.374 0.626772 16.3829 0.635836 16.3899C2.52306 17.7873 4.63395 18.8539 6.87842 19.5442C6.89422 19.549 6.9111 19.5488 6.92678 19.5436C6.94246 19.5385 6.9562 19.5287 6.96613 19.5155C7.44819 18.8596 7.87534 18.165 8.24322 17.4389C8.24827 17.4289 8.25116 17.418 8.25169 17.4068C8.25221 17.3957 8.25037 17.3845 8.24628 17.3741C8.24218 17.3637 8.23593 17.3543 8.22794 17.3465C8.21994 17.3387 8.21038 17.3327 8.19989 17.3288C7.52632 17.0711 6.87422 16.7604 6.24972 16.3997C6.23837 16.393 6.22884 16.3837 6.22197 16.3724C6.21511 16.3612 6.21111 16.3485 6.21033 16.3353C6.20955 16.3222 6.21202 16.3091 6.21752 16.2971C6.22302 16.2852 6.23137 16.2748 6.24185 16.2668C6.37289 16.1686 6.50401 16.0665 6.62914 15.9633C6.64026 15.9542 6.65371 15.9483 6.66798 15.9464C6.68225 15.9445 6.69678 15.9466 6.70992 15.9525C10.8013 17.8197 15.2308 17.8197 19.2737 15.9525C19.2869 15.9462 19.3016 15.9438 19.3161 15.9456C19.3306 15.9473 19.3442 15.9531 19.3555 15.9624C19.4807 16.0655 19.6118 16.1686 19.7438 16.2668C19.7543 16.2747 19.7628 16.285 19.7684 16.2969C19.7739 16.3088 19.7765 16.3219 19.7758 16.3351C19.7752 16.3482 19.7712 16.361 19.7645 16.3723C19.7577 16.3835 19.7482 16.393 19.7369 16.3997C19.1138 16.7635 18.4611 17.0739 17.7858 17.3278C17.7753 17.3318 17.7658 17.338 17.7579 17.3459C17.7499 17.3539 17.7437 17.3634 17.7397 17.3738C17.7357 17.3843 17.7339 17.3955 17.7346 17.4067C17.7352 17.4179 17.7382 17.4289 17.7433 17.4389C18.1173 18.161 18.5438 18.8547 19.0194 19.5143C19.0291 19.5279 19.0427 19.538 19.0585 19.5434C19.0742 19.5487 19.0912 19.549 19.1071 19.5441C21.3556 18.8561 23.4702 17.7894 25.3598 16.3899C25.369 16.3832 25.3766 16.3746 25.3822 16.3647C25.3879 16.3548 25.3913 16.3438 25.3923 16.3324C25.9137 10.942 24.5193 6.25961 21.6961 2.1087ZM8.85423 13.4924C7.62243 13.4924 6.60746 12.362 6.60746 10.9737C6.60746 9.58547 7.60274 8.45499 8.85423 8.45499C10.1155 8.45499 11.1207 9.5953 11.101 10.9737C11.101 12.362 10.1056 13.4924 8.85423 13.4924ZM17.1612 13.4924C15.9295 13.4924 14.9145 12.362 14.9145 10.9737C14.9145 9.58547 15.9098 8.45499 17.1612 8.45499C18.4226 8.45499 19.4277 9.5953 19.408 10.9737C19.408 12.362 18.4226 13.4924 17.1612 13.4924Z" fill="white" stroke="white"/>
</svg>
