<svg width="32" height="32" viewBox="0 0 32 32" fill="none" xmlns="http://www.w3.org/2000/svg">
<path d="M20.6826 17.0004L16.6826 26.0004C15.887 26.0004 15.1239 25.6843 14.5613 25.1217C13.9987 24.5591 13.6826 23.796 13.6826 23.0004V19.0004H8.02265C7.73274 19.0036 7.44558 18.9439 7.18108 18.8251C6.91657 18.7064 6.68103 18.5316 6.49079 18.3128C6.30055 18.0941 6.16014 17.8365 6.07931 17.5581C5.99847 17.2797 5.97914 16.987 6.02265 16.7004L7.40265 7.70036C7.47497 7.22346 7.71721 6.78875 8.08474 6.47636C8.45227 6.16396 8.92032 5.99491 9.40265 6.00036H20.6826M20.6826 17.0004V6.00036M20.6826 17.0004H23.3526C23.9186 17.0104 24.4685 16.8122 24.8981 16.4435C25.3276 16.0749 25.6068 15.5613 25.6826 15.0004V8.00036C25.6068 7.43942 25.3276 6.92586 24.8981 6.55718C24.4685 6.1885 23.9186 5.99035 23.3526 6.00036H20.6826" stroke="white" stroke-width="2" stroke-linecap="round" stroke-linejoin="round"/>
</svg>
