<svg width="17" height="17" viewBox="0 0 17 17" fill="none" xmlns="http://www.w3.org/2000/svg">
<g clip-path="url(#clip0_0_3730)">
<path d="M14.0653 10.179L13.5374 9.31139C13.2573 8.85117 12.8164 8.50295 12.3116 8.34334C11.8068 8.18374 11.2795 8.22581 10.8457 8.46031L7.57404 10.2287C7.14019 10.4632 6.83535 10.8709 6.72659 11.3621C6.61782 11.8533 6.71403 12.3879 6.99406 12.8481L7.52199 13.7157" stroke="white" stroke-width="0.713366" stroke-linecap="round" stroke-linejoin="round"/>
<path d="M8.15407 7.6092C9.05751 7.12088 9.31718 5.94812 8.73405 4.98977C8.15092 4.03141 6.94582 3.65037 6.04238 4.13868C5.13894 4.627 4.87927 5.79976 5.4624 6.75812C6.04553 7.71647 7.25063 8.09751 8.15407 7.6092Z" stroke="#C5C5D1" stroke-width="0.713366" stroke-linecap="round" stroke-linejoin="round"/>
</g>
<defs>
<clipPath id="clip0_0_3730">
<rect width="12.0146" height="12.0146" rx="1.50182" transform="matrix(0.859914 -0.46479 0.555035 0.912185 0 5.58425)" fill="white"/>
</clipPath>
</defs>
</svg>
