<svg width="258" height="163" viewBox="0 0 258 163" fill="none" xmlns="http://www.w3.org/2000/svg">
<path d="M34.6438 132.987C33.2927 133.717 32.9263 135.218 33.7427 136.559L33.7482 136.569C34.5117 137.823 35.9119 138.296 37.1077 137.649C37.9624 137.187 38.2249 136.431 38.1361 135.785L38.2224 135.738C38.253 135.789 38.2794 135.842 38.31 135.892C39.0316 137.181 39.2369 138.433 38.2484 138.968C37.7002 139.264 37.1321 139.17 36.6866 138.796L36.6458 138.757L35.5494 139.35L35.5887 139.395C36.403 140.3 37.6952 140.557 38.8391 139.939C40.4061 139.092 40.549 137.262 39.1949 135.036L39.1893 135.027C37.7404 132.646 35.9734 132.269 34.6438 132.987ZM36.8323 136.593C36.1243 136.976 35.2763 136.704 34.811 135.939L34.8054 135.93C34.3568 135.193 34.5512 134.315 35.2375 133.944C35.9282 133.571 36.8273 133.87 37.287 134.625L37.2926 134.635C37.7467 135.381 37.5359 136.213 36.8323 136.593Z" fill="#C5C5D1"/>
<path d="M40.429 133.171C40.8261 132.956 40.9203 132.479 40.6751 132.076C40.4271 131.668 39.9457 131.509 39.5485 131.724C39.1557 131.936 39.0544 132.41 39.3024 132.818C39.5476 133.221 40.0362 133.383 40.429 133.171ZM42.4964 136.568C42.8935 136.354 42.9905 135.881 42.7425 135.474C42.4946 135.066 42.0131 134.907 41.6159 135.121C41.2231 135.334 41.1218 135.808 41.3698 136.216C41.6178 136.623 42.1036 136.781 42.4964 136.568Z" fill="#C5C5D1"/>
<path d="M47.8389 134.855L48.9051 134.279L48.1333 133.01L48.9708 132.558L48.3773 131.582L47.5398 132.035L44.8845 127.671L43.3089 128.523C43.2931 130.345 43.3332 132.343 43.4315 134.268L44.0194 135.234L47.0671 133.587L47.8389 134.855ZM44.4787 133.726L44.4369 133.657C44.3586 132.209 44.3356 130.597 44.3448 129.216L44.4095 129.181L46.5076 132.629L44.4787 133.726Z" fill="#C5C5D1"/>
<path d="M52.1472 132.526L53.2609 131.924L49.2403 125.317L48.1309 125.916L47.2418 128.009L47.9189 129.122L48.7609 127.121L48.8343 127.082L52.1472 132.526Z" fill="#C5C5D1"/>
<path fill-rule="evenodd" clip-rule="evenodd" d="M206.473 39.2427L205.841 39.584C205.493 39.7725 205.392 40.2252 205.617 40.5952L209.15 46.4007C209.375 46.7706 209.84 46.9177 210.189 46.7292L210.82 46.3879C211.169 46.1994 211.269 45.7467 211.044 45.3767L207.512 39.5712C207.287 39.2012 206.822 39.0541 206.473 39.2427ZM203.845 42.7398L204.477 42.3985C204.826 42.21 205.291 42.3571 205.516 42.727L208.097 46.9695C208.322 47.3395 208.222 47.7922 207.873 47.9807L207.242 48.322C206.893 48.5105 206.428 48.3634 206.203 47.9935L203.621 43.751C203.396 43.381 203.497 42.9283 203.845 42.7398ZM202.481 45.5544L201.85 45.8957C201.501 46.0842 201.401 46.5369 201.626 46.9069L203.256 49.5863C203.481 49.9563 203.946 50.1034 204.295 49.9149L204.927 49.5736C205.275 49.385 205.376 48.9323 205.151 48.5624L203.52 45.8829C203.295 45.5129 202.83 45.3659 202.481 45.5544ZM200.349 48.4869L199.718 48.8283C199.369 49.0168 199.269 49.4695 199.494 49.8394L200.309 51.1792C200.534 51.5491 201 51.6962 201.348 51.5077L201.98 51.1664C202.329 50.9779 202.429 50.5252 202.204 50.1552L201.388 48.8155C201.163 48.4455 200.698 48.2984 200.349 48.4869Z" fill="#C5C5D1"/>
<path fill-rule="evenodd" clip-rule="evenodd" d="M215.951 36.0136C217.351 35.2574 219.044 35.1003 220.68 35.5749C220.804 35.6126 220.926 35.5456 220.952 35.4248L221.207 34.2487C221.22 34.1875 221.208 34.1209 221.173 34.0637C221.137 34.0066 221.082 33.9635 221.019 33.9442C216.711 32.6769 212.512 34.9466 211.496 39.0913C211.482 39.1523 211.494 39.2189 211.528 39.2764C211.563 39.334 211.618 39.3776 211.68 39.3978L212.886 39.7846C213.01 39.8243 213.133 39.7592 213.161 39.6389C213.553 38.0679 214.552 36.77 215.951 36.0136ZM217.498 38.5562C218.267 38.1406 219.193 38.043 220.096 38.2824C220.22 38.3184 220.341 38.2511 220.367 38.1307L220.621 36.955C220.634 36.8933 220.622 36.8262 220.586 36.7687C220.551 36.7112 220.495 36.6681 220.431 36.6492C217.654 35.8747 214.966 37.3274 214.273 39.9778C214.258 40.0392 214.269 40.1064 214.304 40.1645C214.338 40.2226 214.394 40.2666 214.457 40.2868L215.661 40.6743C215.785 40.7135 215.908 40.6495 215.937 40.5302C216.174 39.6753 216.73 38.9718 217.498 38.5562ZM220 39.4774C220.036 39.5347 220.049 39.6022 220.035 39.6639L219.595 41.6958C219.582 41.7555 219.545 41.8051 219.493 41.8335C219.44 41.8619 219.376 41.8668 219.315 41.8471L217.232 41.1788C217.168 41.1592 217.113 41.1149 217.079 41.0563C217.045 40.9977 217.035 40.9301 217.052 40.8693C217.418 39.7112 218.597 39.0736 219.842 39.3609C219.907 39.3779 219.964 39.42 220 39.4774Z" fill="#C5C5D1"/>
<path opacity="0.4" fill-rule="evenodd" clip-rule="evenodd" d="M225.019 29.8117L235.544 24.1231C236.125 23.8089 236.9 24.0541 237.276 24.6707L239.721 28.6899C240.096 29.3064 239.929 30.061 239.348 30.3752L228.823 36.0638C228.242 36.378 227.467 36.1328 227.091 35.5163L224.646 31.4971C224.271 30.8805 224.438 30.1259 225.019 29.8117ZM224.014 31.8384C223.414 30.8518 223.681 29.6446 224.611 29.1419L235.136 23.4532C236.066 22.9505 237.307 23.3428 237.907 24.3293L240.353 28.3485C240.953 29.3351 240.686 30.5423 239.755 31.045L229.231 36.7337C228.301 37.2364 227.06 36.8441 226.46 35.8576L224.014 31.8384ZM240.6 25.5444C240.956 26.1293 240.946 26.8358 240.576 27.3374L238.946 24.658C239.592 24.6102 240.244 24.9595 240.6 25.5444Z" fill="#C5C5D1"/>
<rect width="13.5164" height="5.50668" rx="1.00121" transform="matrix(0.840952 -0.454541 0.542797 0.892071 225.006 30.7092)" fill="#C5C5D1"/>
</svg>
