<svg width="62" height="64" viewBox="0 0 62 64" fill="none" xmlns="http://www.w3.org/2000/svg">
<path d="M57.9127 25.9385C58.6171 23.8049 58.8614 21.5443 58.6294 19.3079C58.3974 17.0714 57.6944 14.9108 56.5674 12.9706C54.8969 10.0359 52.3451 7.71244 49.2804 6.3354C46.2157 4.95838 42.7965 4.59899 39.516 5.30913C38.0363 3.62727 36.2177 2.28358 34.1815 1.36803C32.1452 0.452478 29.9387 -0.0138335 27.7095 0.000312469C24.3556 -0.00785217 21.0857 1.05846 18.3713 3.04552C15.657 5.03258 13.6384 7.83771 12.6066 11.0565C10.4217 11.5076 8.35751 12.4243 6.55229 13.7451C4.74706 15.066 3.24243 16.7606 2.13911 18.7155C0.455214 21.6421 -0.26357 25.0323 0.0864177 28.3977C0.436407 31.7629 1.83707 34.9289 4.08643 37.4393C3.38213 39.5729 3.1378 41.8335 3.36981 44.0699C3.60182 46.3063 4.3048 48.4669 5.43171 50.4072C7.10244 53.3418 9.65421 55.665 12.7189 57.0421C15.7836 58.4191 19.2028 58.7786 22.4832 58.0686C23.9628 59.7505 25.7816 61.0941 27.8177 62.0098C29.8539 62.9253 32.0604 63.3916 34.2897 63.3775C37.6453 63.3863 40.9169 62.3195 43.6322 60.3312C46.3477 58.3429 48.3666 55.5357 49.3976 52.315C51.5824 51.8639 53.6466 50.9473 55.4519 49.6264C57.257 48.3056 58.7617 46.6109 59.8651 44.656C61.5469 41.7297 62.264 38.3402 61.9131 34.9763C61.5623 31.6124 60.1615 28.4478 57.9127 25.9385ZM34.2947 59.2343C31.5401 59.2383 28.8721 58.2653 26.7569 56.4856C26.8522 56.4332 27.0195 56.3406 27.1285 56.2733L39.6399 48.9841C39.9539 48.8039 40.2147 48.5426 40.3954 48.227C40.5762 47.9114 40.6703 47.553 40.6681 47.1887V29.3981L45.9564 32.4779C45.984 32.4919 46.0079 32.5125 46.026 32.538C46.0439 32.5635 46.0552 32.5931 46.0591 32.624V47.3573C46.0552 50.5042 44.8148 53.5211 42.6097 55.7473C40.4046 57.9736 37.4146 59.2275 34.2947 59.2343ZM8.99438 48.3357C7.61465 45.9311 7.11738 43.1138 7.58962 40.3767C7.68253 40.433 7.8448 40.5329 7.96125 40.6004L20.4726 47.8895C20.7844 48.0733 21.1391 48.1703 21.5003 48.1703C21.8613 48.1703 22.216 48.0733 22.5278 47.8895L37.8029 38.9937V45.1533C37.8046 45.1847 37.7986 45.2162 37.7854 45.2448C37.7722 45.2733 37.7523 45.2982 37.7273 45.317L25.0796 52.6823C22.3743 54.2539 19.1614 54.6787 16.1458 53.8638C13.1303 53.0489 10.5583 51.0608 8.99438 48.3357ZM5.70301 20.787C7.07675 18.3792 9.24654 16.5359 11.8324 15.5794C11.8324 15.6881 11.8262 15.8806 11.8262 16.0141V30.5925C11.824 30.9566 11.918 31.3146 12.0984 31.6301C12.2789 31.9454 12.5394 32.2065 12.8531 32.3867L28.1281 41.2814L22.84 44.3611C22.8139 44.3785 22.7839 44.389 22.7528 44.3919C22.7217 44.3947 22.6902 44.3898 22.6615 44.3774L10.0126 37.0058C7.31206 35.4283 5.34184 32.8352 4.53397 29.7948C3.72609 26.7546 4.1465 23.5152 5.70301 20.787ZM49.1511 30.9848L33.8759 22.0889L39.1642 19.0103C39.1903 18.9931 39.2203 18.9824 39.2514 18.9796C39.2825 18.9767 39.3138 18.9818 39.3425 18.9942L51.9915 26.3595C53.9294 27.4885 55.5081 29.1509 56.5432 31.1522C57.5781 33.1536 58.0263 35.4108 57.8354 37.6597C57.6446 39.9087 56.8222 42.0562 55.4651 43.8509C54.1078 45.6456 52.2717 47.0132 50.1718 47.7933C50.1718 47.6834 50.1718 47.491 50.1718 47.3573V32.779C50.1747 32.4155 50.0817 32.0578 49.9023 31.7424C49.723 31.4271 49.4637 31.1657 49.1511 30.9848ZM54.4145 22.9947C54.3216 22.9372 54.1594 22.8385 54.043 22.7712L41.5314 15.4819C41.2196 15.2984 40.8651 15.2016 40.5039 15.2016C40.1429 15.2016 39.7882 15.2984 39.4764 15.4819L24.2013 24.3779V18.2183C24.1996 18.1867 24.2056 18.1554 24.2187 18.1268C24.2319 18.0983 24.2519 18.0734 24.2769 18.0546L36.9246 10.6954C38.8621 9.56851 41.0779 9.02145 43.3125 9.11819C45.5472 9.21496 47.7081 9.95153 49.5429 11.2418C51.3776 12.532 52.8101 14.3225 53.6728 16.4039C54.5356 18.4852 54.7929 20.7713 54.4145 22.9947ZM21.3262 33.9735L16.0367 30.8937C16.009 30.8797 15.985 30.8591 15.9671 30.8336C15.9492 30.8081 15.9377 30.7785 15.9339 30.7474V16.0141C15.9353 13.7577 16.5741 11.5482 17.7752 9.64445C18.9765 7.74071 20.6905 6.22146 22.7166 5.26454C24.7428 4.30761 26.9972 3.95262 29.2161 4.24108C31.4352 4.52955 33.5267 5.44955 35.2461 6.8934C35.1507 6.94587 34.9847 7.03834 34.8744 7.10581L22.363 14.3949C22.049 14.575 21.7884 14.836 21.6076 15.1514C21.4269 15.4667 21.3328 15.825 21.3349 16.1891L21.3262 33.9735ZM24.1988 27.7264L31.0021 23.7632L37.8052 27.7238V35.6476L31.0021 39.6084L24.1988 35.6476V27.7264Z" fill="#FFABFF"/>
</svg>
