<svg width="5" height="6" viewBox="0 0 5 6" fill="none" xmlns="http://www.w3.org/2000/svg">
<path d="M2.49215 5.63103L4.72909 4.42195C5.0322 4.25812 5.08317 4.01858 4.87084 3.66963L3.75763 1.84009C3.56653 1.52603 3.34576 1.43006 3.07766 1.53854L2.69547 0.910414C2.1237 -0.0292768 1.26729 -0.169221 0.651663 0.16353C0.0360365 0.496281 -0.268316 1.26362 0.303456 2.20332L0.693231 2.8439C0.485708 3.00575 0.43944 3.24275 0.618403 3.53687L1.73161 5.3664C1.94394 5.71536 2.18904 5.79487 2.49215 5.63103ZM0.649911 1.9465C0.269235 1.32087 0.445827 0.78488 0.885225 0.547382C1.32462 0.309885 1.90464 0.436917 2.28531 1.06255L2.69784 1.74052L1.06395 2.62696L0.649911 1.9465Z" fill="#C5C5D1"/>
</svg>
