<svg width="32" height="32" viewBox="0 0 32 32" fill="none" xmlns="http://www.w3.org/2000/svg">
<path d="M14.738 7.96274L6.26802 22.1027C6.09339 22.4052 6.00099 22.748 6.00001 23.0973C5.99903 23.4465 6.08951 23.7899 6.26245 24.0933C6.43538 24.3967 6.68474 24.6495 6.98573 24.8266C7.28671 25.0037 7.62882 25.0989 7.97802 25.1027H24.918C25.2672 25.0989 25.6093 25.0037 25.9103 24.8266C26.2113 24.6495 26.4607 24.3967 26.6336 24.0933C26.8065 23.7899 26.897 23.4465 26.896 23.0973C26.8951 22.748 26.8027 22.4052 26.628 22.1027L18.158 7.96274C17.9797 7.66885 17.7287 7.42586 17.4292 7.25723C17.1297 7.08859 16.7918 7 16.448 7C16.1043 7 15.7663 7.08859 15.4668 7.25723C15.1673 7.42586 14.9163 7.66885 14.738 7.96274Z" stroke="white" stroke-width="1.5" stroke-linecap="round" stroke-linejoin="round"/>
<path d="M16.4482 13.1028V17.1028" stroke="white" stroke-width="1.5" stroke-linecap="round" stroke-linejoin="round"/>
<path d="M16.4482 21.1028H16.4582" stroke="white" stroke-width="1.5" stroke-linecap="round" stroke-linejoin="round"/>
</svg>
