<svg width="17" height="17" viewBox="0 0 17 17" fill="none" xmlns="http://www.w3.org/2000/svg">
<g clip-path="url(#clip0_0_3715)">
<path d="M9.32532 10.1924C10.3952 9.61413 10.7027 8.22533 10.0121 7.09044C9.32158 5.95554 7.89449 5.50431 6.82463 6.08258C5.75477 6.66084 5.44727 8.04964 6.13782 9.18453C6.82836 10.3194 8.25546 10.7707 9.32532 10.1924Z" stroke="white" stroke-width="0.901093" stroke-linecap="round" stroke-linejoin="round"/>
<path d="M5.32422 3.61668L5.82436 4.43865" stroke="#C5C5D1" stroke-width="0.901093" stroke-linecap="round" stroke-linejoin="round"/>
<path d="M10.3256 11.8363L10.8257 12.6583" stroke="#C5C5D1" stroke-width="0.901093" stroke-linecap="round" stroke-linejoin="round"/>
<path d="M3.11521 6.56923L4.02046 6.85547" stroke="#C5C5D1" stroke-width="0.901093" stroke-linecap="round" stroke-linejoin="round"/>
<path d="M12.1295 9.41948L13.0347 9.70571" stroke="#C5C5D1" stroke-width="0.901093" stroke-linecap="round" stroke-linejoin="round"/>
<path d="M3.81324 10.441L4.5881 10.0222" stroke="#C5C5D1" stroke-width="0.901093" stroke-linecap="round" stroke-linejoin="round"/>
<path d="M11.5619 6.25279L12.3367 5.83397" stroke="#C5C5D1" stroke-width="0.901093" stroke-linecap="round" stroke-linejoin="round"/>
<path d="M7.00627 12.9641L7.20133 12.0832" stroke="#C5C5D1" stroke-width="0.901093" stroke-linecap="round" stroke-linejoin="round"/>
<path d="M8.9486 4.19178L9.14365 3.31083" stroke="#C5C5D1" stroke-width="0.901093" stroke-linecap="round" stroke-linejoin="round"/>
</g>
<defs>
<clipPath id="clip0_0_3715">
<rect width="12.0146" height="12.0146" rx="1.50182" transform="matrix(0.859914 -0.46479 0.555035 0.912185 0 5.58425)" fill="white"/>
</clipPath>
</defs>
</svg>
