<svg width="17" height="17" viewBox="0 0 17 17" fill="none" xmlns="http://www.w3.org/2000/svg">
<g clip-path="url(#clip0_0_1240)">
<path d="M10.5644 7.70247L11.2653 12.2389C10.957 12.4056 10.5824 12.4355 10.2237 12.3221C9.86504 12.2086 9.55177 11.9612 9.3528 11.6342L8.35252 9.9903L6.15967 11.1756C6.04817 11.2376 5.92196 11.2732 5.7898 11.2798C5.65763 11.2864 5.52267 11.2639 5.39425 11.2138C5.26583 11.1637 5.14704 11.0873 5.04609 10.9898C4.94515 10.8923 4.86447 10.776 4.80965 10.6491L3.09368 6.6613C3.00244 6.45015 2.98758 6.22077 3.05185 6.01542C3.11612 5.81006 3.25519 5.64257 3.44342 5.54381L7.81364 3.18167M10.5644 7.70247L7.81364 3.18167M10.5644 7.70247L11.5988 7.14335C11.8206 7.02895 11.9841 6.83235 12.0583 6.59089C12.1325 6.34942 12.1123 6.07989 12.0014 5.83346L10.2509 2.95659C10.0813 2.74194 9.84467 2.58935 9.58606 2.52777C9.32746 2.46619 9.06484 2.49992 8.84808 2.62255L7.81364 3.18167" stroke="#C5C5D1" stroke-width="0.901093" stroke-linecap="round" stroke-linejoin="round"/>
</g>
<defs>
<clipPath id="clip0_0_1240">
<rect width="12.0146" height="12.0146" rx="1.50182" transform="matrix(0.859914 -0.46479 0.555035 0.912185 0 5.58425)" fill="white"/>
</clipPath>
</defs>
</svg>
