<svg width="213" height="135" viewBox="0 0 213 135" fill="none" xmlns="http://www.w3.org/2000/svg">
<path d="M28.6013 109.792C27.4858 110.395 27.1833 111.633 27.8573 112.741L27.8619 112.748C28.4922 113.784 29.6483 114.174 30.6354 113.641C31.3411 113.259 31.5578 112.635 31.4844 112.102L31.5557 112.063C31.581 112.105 31.6028 112.148 31.6281 112.19C32.2237 113.254 32.3933 114.288 31.5772 114.729C31.1246 114.974 30.6556 114.896 30.2878 114.587L30.2541 114.555L29.3489 115.044L29.3814 115.082C30.0537 115.829 31.1204 116.041 32.0649 115.531C33.3585 114.831 33.4765 113.321 32.3586 111.483L32.354 111.476C31.1578 109.51 29.699 109.198 28.6013 109.792ZM30.4081 112.769C29.8236 113.085 29.1235 112.86 28.7393 112.229L28.7347 112.221C28.3644 111.613 28.5248 110.888 29.0915 110.582C29.6617 110.274 30.4039 110.52 30.7835 111.144L30.7881 111.152C31.163 111.768 30.989 112.455 30.4081 112.769Z" fill="#C5C5D1"/>
<path d="M33.3774 109.943C33.7053 109.766 33.7831 109.372 33.5806 109.04C33.3759 108.703 32.9784 108.571 32.6505 108.748C32.3262 108.924 32.2426 109.316 32.4473 109.652C32.6498 109.985 33.0531 110.118 33.3774 109.943ZM35.0843 112.748C35.4121 112.571 35.4922 112.181 35.2875 111.845C35.0827 111.508 34.6852 111.376 34.3574 111.554C34.0331 111.729 33.9494 112.121 34.1542 112.457C34.3589 112.794 34.7599 112.924 35.0843 112.748Z" fill="#C5C5D1"/>
<path d="M39.4949 111.334L40.3752 110.858L39.738 109.811L40.4294 109.437L39.9394 108.632L39.248 109.006L37.0558 105.403L35.755 106.106C35.742 107.61 35.7751 109.26 35.8563 110.849L36.3417 111.647L38.8577 110.287L39.4949 111.334ZM36.7208 110.402L36.6863 110.345C36.6217 109.149 36.6027 107.818 36.6102 106.679L36.6637 106.65L38.3958 109.496L36.7208 110.402Z" fill="#C5C5D1"/>
<path d="M43.0518 109.411L43.9712 108.914L40.6519 103.459L39.736 103.954L39.002 105.682L39.561 106.601L40.2561 104.949L40.3167 104.916L43.0518 109.411Z" fill="#C5C5D1"/>
<path fill-rule="evenodd" clip-rule="evenodd" d="M170.46 32.398L169.939 32.6798C169.651 32.8354 169.568 33.2092 169.754 33.5146L172.67 38.3075C172.856 38.6129 173.24 38.7344 173.528 38.5787L174.049 38.297C174.337 38.1413 174.42 37.7676 174.234 37.4621L171.318 32.6692C171.132 32.3638 170.748 32.2424 170.46 32.398ZM168.291 35.2852L168.812 35.0034C169.1 34.8478 169.484 34.9692 169.67 35.2746L171.801 38.7771C171.987 39.0826 171.904 39.4563 171.616 39.612L171.095 39.8938C170.807 40.0494 170.423 39.9279 170.237 39.6225L168.106 36.12C167.92 35.8146 168.003 35.4408 168.291 35.2852ZM167.165 37.6088L166.643 37.8906C166.355 38.0463 166.273 38.42 166.459 38.7254L167.805 40.9376C167.99 41.243 168.374 41.3644 168.662 41.2088L169.184 40.927C169.472 40.7714 169.554 40.3976 169.369 40.0922L168.023 37.8801C167.837 37.5747 167.453 37.4532 167.165 37.6088ZM165.405 40.0299L164.883 40.3117C164.595 40.4673 164.513 40.8411 164.699 41.1465L165.372 42.2526C165.557 42.558 165.941 42.6794 166.229 42.5238L166.751 42.242C167.039 42.0864 167.121 41.7126 166.936 41.4072L166.263 40.3012C166.077 39.9957 165.693 39.8743 165.405 40.0299Z" fill="#C5C5D1"/>
<path fill-rule="evenodd" clip-rule="evenodd" d="M178.285 29.7322C179.441 29.1078 180.838 28.9781 182.189 29.37C182.292 29.4011 182.392 29.3458 182.414 29.246L182.624 28.2751C182.635 28.2245 182.625 28.1695 182.596 28.1224C182.567 28.0752 182.521 28.0396 182.469 28.0237C178.913 26.9774 175.446 28.8513 174.608 32.273C174.596 32.3234 174.605 32.3784 174.634 32.4259C174.662 32.4734 174.708 32.5094 174.759 32.526L175.755 32.8454C175.857 32.8782 175.959 32.8245 175.982 32.7251C176.305 31.4281 177.13 30.3566 178.285 29.7322ZM179.563 31.8312C180.197 31.4881 180.962 31.4075 181.707 31.6052C181.81 31.6349 181.909 31.5793 181.931 31.4799L182.141 30.5094C182.152 30.4584 182.141 30.403 182.112 30.3555C182.082 30.308 182.036 30.2725 181.984 30.2568C179.691 29.6175 177.472 30.8167 176.899 33.0049C176.887 33.0556 176.897 33.1111 176.925 33.159C176.954 33.207 176.999 33.2433 177.052 33.26L178.046 33.5799C178.148 33.6123 178.249 33.5595 178.274 33.4609C178.469 32.7551 178.929 32.1743 179.563 31.8312ZM181.628 32.5917C181.658 32.6391 181.668 32.6948 181.657 32.7457L181.294 34.4232C181.283 34.4725 181.253 34.5134 181.209 34.5369C181.166 34.5604 181.113 34.5644 181.062 34.5482L179.343 33.9964C179.29 33.9802 179.244 33.9436 179.216 33.8953C179.188 33.8469 179.18 33.7911 179.194 33.7409C179.496 32.7848 180.47 32.2584 181.498 32.4956C181.551 32.5096 181.598 32.5444 181.628 32.5917Z" fill="#C5C5D1"/>
<path opacity="0.4" fill-rule="evenodd" clip-rule="evenodd" d="M185.772 24.612L194.46 19.9156C194.94 19.6562 195.58 19.8586 195.89 20.3676L197.909 23.6858C198.219 24.1949 198.081 24.8178 197.601 25.0772L188.912 29.7736C188.432 30.033 187.792 29.8306 187.482 29.3216L185.463 26.0034C185.154 25.4943 185.292 24.8714 185.772 24.612ZM184.942 26.2852C184.447 25.4707 184.667 24.474 185.435 24.059L194.124 19.3625C194.892 18.9475 195.916 19.2714 196.412 20.0858L198.431 23.404C198.926 24.2185 198.705 25.2152 197.938 25.6302L189.249 30.3267C188.481 30.7417 187.457 30.4178 186.961 29.6033L184.942 26.2852ZM198.615 22.5692L197.269 20.3571C197.803 20.3177 198.341 20.6061 198.635 21.089C198.929 21.5718 198.921 22.1551 198.615 22.5692Z" fill="#C5C5D1"/>
<rect width="11.1539" height="4.5442" rx="0.826218" transform="matrix(0.841325 -0.454743 0.543037 0.892467 185.76 25.3529)" fill="#C5C5D1"/>
</svg>
