<svg width="32" height="32" viewBox="0 0 32 32" fill="none" xmlns="http://www.w3.org/2000/svg">
<path d="M11 15L15 6C15.7956 6 16.5587 6.31607 17.1213 6.87868C17.6839 7.44129 18 8.20435 18 9V13H23.66C23.9499 12.9967 24.2371 13.0565 24.5016 13.1752C24.7661 13.2939 25.0016 13.4687 25.1919 13.6875C25.3821 13.9063 25.5225 14.1638 25.6033 14.4423C25.6842 14.7207 25.7035 15.0134 25.66 15.3L24.28 24.3C24.2077 24.7769 23.9654 25.2116 23.5979 25.524C23.2304 25.8364 22.7623 26.0055 22.28 26H11M11 15V26M11 15H8C7.46957 15 6.96086 15.2107 6.58579 15.5858C6.21071 15.9609 6 16.4696 6 17V24C6 24.5304 6.21071 25.0391 6.58579 25.4142C6.96086 25.7893 7.46957 26 8 26H11" stroke="white" stroke-width="2" stroke-linecap="round" stroke-linejoin="round"/>
</svg>
