<svg width="17" height="17" viewBox="0 0 17 17" fill="none" xmlns="http://www.w3.org/2000/svg">
<g clip-path="url(#clip0_0_3738)">
<path d="M11.4997 7.56082L13.0001 10.0267C13.1328 10.2447 13.1783 10.4979 13.1268 10.7306C13.0753 10.9633 12.9309 11.1564 12.7254 11.2675L8.46366 13.571C8.25815 13.6821 8.00837 13.702 7.76926 13.6264C7.53015 13.5508 7.3213 13.3859 7.18865 13.1679L4.43789 8.64705C4.30525 8.42905 4.25967 8.17586 4.31119 7.94317C4.36271 7.71048 4.50711 7.51735 4.71262 7.40627L7.0372 6.14981" stroke="white" stroke-width="0.901093" stroke-linecap="round" stroke-linejoin="round"/>
<path d="M7.83674 4.07923L10.1613 2.82278L11.6617 5.28867" stroke="#C5C5D1" stroke-width="0.901093" stroke-linecap="round" stroke-linejoin="round"/>
<path d="M8.65033 9.64706L10.1613 2.82275" stroke="#C5C5D1" stroke-width="0.901093" stroke-linecap="round" stroke-linejoin="round"/>
</g>
<defs>
<clipPath id="clip0_0_3738">
<rect width="12.0146" height="12.0146" rx="1.50182" transform="matrix(0.859914 -0.46479 0.555035 0.912185 0 5.58425)" fill="white"/>
</clipPath>
</defs>
</svg>
