<svg width="568" height="672" viewBox="0 0 568 672" fill="none" xmlns="http://www.w3.org/2000/svg">
<g filter="url(#filter0_bd_14_9213)">
<rect width="281.592" height="39.0474" transform="matrix(0.841045 -0.454591 0.542856 0.892169 309.945 637.395)" fill="#2B2C2F"/>
<path d="M396.469 611.805L399.111 610.377C399.469 610.184 399.53 609.901 399.279 609.488L397.964 607.327C397.738 606.957 397.477 606.843 397.161 606.971L396.709 606.229C396.034 605.119 395.022 604.954 394.295 605.347C393.568 605.74 393.209 606.647 393.884 607.756L394.344 608.513C394.099 608.704 394.045 608.984 394.256 609.332L395.571 611.493C395.822 611.905 396.111 611.999 396.469 611.805ZM394.293 607.453C393.844 606.714 394.052 606.081 394.571 605.801C395.09 605.52 395.775 605.67 396.225 606.409L396.712 607.21L394.782 608.257L394.293 607.453Z" fill="#C5C5D1"/>
<path d="M405.472 603.37C404.902 602.677 403.935 602.38 402.966 602.904C401.848 603.508 401.658 604.748 402.461 606.067C403.28 607.414 404.518 607.887 405.635 607.283C406.593 606.765 406.841 605.87 406.482 605.031L405.838 605.379C406.011 605.922 405.798 606.387 405.261 606.677C404.551 607.061 403.714 606.688 403.12 605.711C402.537 604.753 402.618 603.901 403.336 603.513C403.91 603.203 404.469 603.354 404.828 603.718L405.472 603.37ZM408.198 605.799L408.834 605.455L407.31 602.95C406.876 602.236 406.976 601.545 407.691 601.159C408.294 600.833 408.839 601.034 409.295 601.784L410.862 604.359L411.498 604.015L409.831 601.275C409.227 600.282 408.345 599.997 407.502 600.453C406.891 600.783 406.64 601.283 406.725 601.859L406.665 601.891L405.237 599.543L404.601 599.887L408.198 605.799ZM413.536 602.225C413.073 602.475 412.576 602.41 412.314 601.978C412.056 601.554 412.186 601.186 412.766 600.815L413.794 600.16L414.031 600.549C414.398 601.154 414.191 601.871 413.536 602.225ZM413.778 602.882C414.311 602.594 414.597 602.11 414.581 601.519L414.641 601.487L415.02 602.111L415.627 601.783L413.865 598.886C413.33 598.007 412.463 597.771 411.49 598.297C410.639 598.757 410.282 599.545 410.61 600.27L411.254 599.922C411.14 599.54 411.356 599.168 411.833 598.91C412.429 598.588 412.91 598.708 413.228 599.23L413.462 599.615L412.357 600.311C411.464 600.872 411.203 601.592 411.664 602.35C412.135 603.123 413.005 603.3 413.778 602.882ZM413.791 595.697L414.458 596.792L413.814 597.14L414.158 597.705L414.802 597.357L416.364 599.924C416.856 600.733 417.381 600.877 418.203 600.433C418.328 600.365 418.441 600.283 418.552 600.192L418.206 599.622C418.095 599.698 418.034 599.736 417.92 599.798C417.505 600.022 417.199 599.906 416.895 599.408L415.438 597.013L416.326 596.533L415.982 595.968L415.094 596.448L414.428 595.353L413.791 595.697ZM420.031 599.455C420.297 599.311 420.371 598.964 420.201 598.685C420.029 598.402 419.676 598.291 419.41 598.435C419.147 598.577 419.067 598.922 419.239 599.205C419.409 599.484 419.768 599.597 420.031 599.455ZM423.23 597.773C424.366 597.159 424.563 595.947 423.736 594.588C422.908 593.226 421.701 592.778 420.565 593.392C419.429 594.006 419.229 595.214 420.058 596.577C420.885 597.935 422.094 598.387 423.23 597.773ZM422.86 597.164C422.105 597.572 421.326 597.221 420.717 596.22C420.105 595.216 420.18 594.409 420.935 594C421.69 593.592 422.466 593.939 423.078 594.944C423.687 595.945 423.615 596.756 422.86 597.164ZM425.308 590.828C424.764 591.122 424.466 591.675 424.506 592.3L424.447 592.332L424.017 591.625L423.41 591.953L426.845 597.598L427.481 597.254L426.235 595.205L426.294 595.173C426.785 595.502 427.403 595.517 427.973 595.209C428.987 594.661 429.122 593.436 428.317 592.113C427.507 590.782 426.325 590.278 425.308 590.828ZM427.451 594.683C426.733 595.071 425.906 594.704 425.316 593.735C424.723 592.761 424.808 591.907 425.53 591.517C426.259 591.123 427.056 591.479 427.658 592.469C428.26 593.458 428.184 594.287 427.451 594.683ZM429.9 589.139C430.532 588.797 431.255 589.064 431.726 589.806L429.528 590.994C429.12 590.218 429.263 589.483 429.9 589.139ZM432.541 591.186C432.602 591.649 432.376 592.037 431.861 592.315C431.184 592.681 430.421 592.389 429.879 591.571L429.86 591.539L432.728 589.989L432.57 589.73C431.77 588.415 430.621 587.957 429.544 588.539C428.449 589.131 428.271 590.374 429.081 591.705C429.895 593.044 431.103 593.517 432.209 592.919C433.083 592.447 433.432 591.664 433.178 590.842L432.541 591.186ZM434.857 591.389L435.494 591.045L433.97 588.541C433.518 587.799 433.654 587.125 434.291 586.781C434.927 586.437 435.451 586.635 435.914 587.396L437.481 589.971L438.117 589.627L436.45 586.887C435.839 585.882 434.998 585.591 434.102 586.075C433.491 586.405 433.27 586.89 433.354 587.465L433.295 587.497L432.889 586.83L432.282 587.158L434.857 591.389ZM440.158 587.835C439.696 588.085 439.199 588.02 438.936 587.588C438.678 587.164 438.808 586.797 439.389 586.425L440.417 585.771L440.653 586.159C441.021 586.764 440.813 587.481 440.158 587.835ZM440.401 588.492C440.933 588.204 441.22 587.721 441.204 587.129L441.263 587.097L441.643 587.721L442.25 587.393L440.487 584.496C439.952 583.617 439.086 583.381 438.112 583.907C437.261 584.367 436.905 585.155 437.233 585.88L437.877 585.532C437.762 585.15 437.978 584.778 438.456 584.52C439.051 584.198 439.533 584.318 439.851 584.84L440.085 585.225L438.979 585.922C438.086 586.483 437.826 587.202 438.287 587.96C438.757 588.733 439.627 588.91 440.401 588.492ZM443.403 586.77L444.04 586.426L441.465 582.194L440.829 582.538L443.403 586.77ZM440.65 581.55C440.894 581.418 440.965 581.098 440.808 580.839C440.65 580.58 440.321 580.476 440.077 580.608C439.833 580.74 439.762 581.06 439.919 581.319C440.077 581.578 440.406 581.682 440.65 581.55ZM445.765 585.546C446.032 585.402 446.105 585.054 445.936 584.775C445.764 584.493 445.411 584.381 445.144 584.525C444.881 584.667 444.802 585.013 444.974 585.295C445.143 585.574 445.502 585.688 445.765 585.546ZM448.794 579.954C448.224 579.261 447.257 578.964 446.288 579.488C445.17 580.092 444.98 581.332 445.783 582.651C446.602 583.998 447.84 584.471 448.957 583.867C449.916 583.349 450.163 582.454 449.804 581.615L449.161 581.963C449.333 582.506 449.12 582.971 448.583 583.261C447.873 583.645 447.036 583.273 446.442 582.295C445.859 581.337 445.94 580.485 446.658 580.097C447.232 579.787 447.791 579.938 448.15 580.302L448.794 579.954ZM453.167 581.592C454.303 580.977 454.5 579.765 453.674 578.407C452.845 577.045 451.638 576.597 450.502 577.211C449.366 577.825 449.167 579.033 449.995 580.395C450.822 581.753 452.031 582.206 453.167 581.592ZM452.797 580.983C452.042 581.391 451.263 581.04 450.654 580.039C450.043 579.034 450.117 578.227 450.872 577.819C451.627 577.411 452.404 577.758 453.015 578.763C453.624 579.764 453.552 580.575 452.797 580.983ZM455.922 580.003L456.559 579.659L454.963 577.037C454.6 576.44 454.712 575.744 455.234 575.462C455.737 575.189 456.262 575.333 456.568 575.836L458.317 578.709L458.953 578.365L457.298 575.645C456.971 575.107 457.073 574.467 457.628 574.167C458.191 573.863 458.655 574.02 459.034 574.644L460.718 577.411L461.355 577.067L459.575 574.143C459.035 573.256 458.279 573.007 457.465 573.447C456.914 573.745 456.638 574.285 456.696 574.849L456.636 574.881C456.184 574.541 455.622 574.443 455.082 574.735C454.549 575.023 454.314 575.51 454.42 576.079L454.361 576.111L453.954 575.444L453.348 575.772L455.922 580.003ZM463.182 577.681L460.776 569.524L460.236 569.816L462.642 577.973L463.182 577.681ZM466.479 570.396C465.909 569.702 464.942 569.406 463.973 569.93C462.855 570.534 462.665 571.773 463.468 573.092C464.287 574.439 465.524 574.912 466.642 574.308C467.6 573.79 467.847 572.895 467.489 572.056L466.845 572.404C467.018 572.947 466.805 573.412 466.268 573.702C465.557 574.086 464.721 573.714 464.126 572.736C463.544 571.779 463.625 570.926 464.343 570.538C464.916 570.228 465.476 570.38 465.835 570.744L466.479 570.396ZM469.204 572.824L469.841 572.48L468.317 569.976C467.882 569.261 467.983 568.57 468.697 568.184C469.301 567.858 469.846 568.059 470.302 568.809L471.869 571.384L472.505 571.04L470.838 568.3C470.234 567.307 469.352 567.022 468.509 567.478C467.898 567.808 467.647 568.309 467.731 568.884L467.672 568.916L466.244 566.569L465.607 566.913L469.204 572.824ZM474.543 569.25C474.08 569.5 473.583 569.435 473.32 569.003C473.062 568.579 473.193 568.212 473.773 567.84L474.801 567.186L475.037 567.574C475.405 568.179 475.198 568.896 474.543 569.25ZM474.785 569.907C475.318 569.619 475.604 569.136 475.588 568.544L475.648 568.512L476.027 569.136L476.634 568.808L474.871 565.911C474.336 565.032 473.47 564.796 472.497 565.322C471.646 565.782 471.289 566.57 471.617 567.295L472.261 566.947C472.147 566.565 472.363 566.193 472.84 565.935C473.436 565.613 473.917 565.733 474.235 566.255L474.469 566.64L473.364 567.337C472.471 567.898 472.21 568.617 472.671 569.375C473.142 570.148 474.011 570.325 474.785 569.907ZM474.798 562.722L475.465 563.817L474.821 564.165L475.165 564.731L475.809 564.383L477.371 566.95C477.863 567.758 478.388 567.902 479.209 567.458C479.335 567.39 479.448 567.309 479.559 567.217L479.213 566.648C479.102 566.724 479.041 566.761 478.926 566.823C478.512 567.048 478.205 566.932 477.902 566.433L476.445 564.038L477.333 563.558L476.989 562.993L476.101 563.473L475.435 562.378L474.798 562.722Z" fill="#C5C5D1"/>
<rect width="101.373" height="3.75456" rx="1.87728" transform="matrix(0.841045 -0.454591 0.542856 0.892169 401.629 622.56)" fill="#C5C5D1"/>
</g>
<path fill-rule="evenodd" clip-rule="evenodd" d="M0 128.009L20.9027 162.362C13.6344 150.417 12.1712 145.451 11.7157 139.894C11.2601 134.337 12.4056 129.164 15.1013 124.603C17.797 120.042 21.1237 116.592 32.3844 110.505L0 128.009ZM237.173 -0.184844L258.076 34.1681C250.808 22.2228 246.999 18.5249 242.141 15.3479C237.282 12.1709 231.965 10.49 226.428 10.3796C220.89 10.2693 216.05 11.2327 204.789 17.3192L237.173 -0.184844ZM547.413 509.685L568.315 544.038L535.931 561.542C547.192 555.456 550.518 552.005 553.214 547.444C555.91 542.884 557.055 537.71 556.6 532.153C556.144 526.596 554.681 521.631 547.413 509.685ZM331.142 672.232L310.24 637.879C317.508 649.824 321.316 653.522 326.175 656.699C331.034 659.876 336.35 661.557 341.888 661.668C347.426 661.778 352.266 660.815 363.527 654.728L331.142 672.232ZM186.348 27.8433C186.686 27.2959 187.197 26.8276 187.949 26.4213L48.5943 101.744C49.3459 101.337 50.033 101.158 50.7048 101.16C51.3767 101.161 52.0243 101.349 52.6251 101.717C53.1461 102.036 53.6339 102.479 54.0947 103.097C57.4708 108.054 59.6287 110.05 62.2035 111.626C64.8471 113.244 67.6965 114.071 70.6526 114.079C73.6087 114.087 76.335 113.458 81.423 110.707L179.578 57.6538C184.666 54.9037 186.62 53.0037 188.105 50.595C189.591 48.1863 190.272 45.4505 190.126 42.4831C189.983 39.5928 189.245 36.8293 186.411 31.5796C186.077 30.8924 185.918 30.2718 185.889 29.6869C185.856 29.0125 186.01 28.3907 186.348 27.8433Z" fill="#202123"/>
<path d="M34.6476 133.002C33.2963 133.732 32.9299 135.233 33.7464 136.574L33.752 136.584C34.5155 137.838 35.9159 138.311 37.1118 137.664C37.9666 137.202 38.2291 136.446 38.1403 135.8L38.2266 135.753C38.2573 135.804 38.2836 135.856 38.3143 135.907C39.0359 137.196 39.2413 138.449 38.2526 138.983C37.7044 139.279 37.1362 139.185 36.6907 138.811L36.6499 138.772L35.5533 139.365L35.5926 139.411C36.407 140.315 37.6993 140.572 38.8434 139.954C40.4106 139.107 40.5535 137.277 39.1992 135.051L39.1936 135.042C37.7446 132.661 35.9773 132.283 34.6476 133.002ZM36.8364 136.608C36.1283 136.991 35.2802 136.719 34.8148 135.954L34.8093 135.945C34.3606 135.208 34.555 134.33 35.2414 133.959C35.9322 133.585 36.8313 133.885 37.2911 134.64L37.2967 134.649C37.7509 135.396 37.5401 136.228 36.8364 136.608Z" fill="#C5C5D1"/>
<path d="M40.4334 133.185C40.8306 132.97 40.9248 132.494 40.6796 132.091C40.4316 131.683 39.9501 131.523 39.5529 131.738C39.16 131.95 39.0587 132.425 39.3067 132.833C39.5519 133.236 40.0406 133.398 40.4334 133.185ZM42.5011 136.583C42.8983 136.369 42.9953 135.896 42.7473 135.489C42.4992 135.081 42.0177 134.921 41.6205 135.136C41.2277 135.348 41.1264 135.823 41.3744 136.231C41.6224 136.638 42.1082 136.796 42.5011 136.583Z" fill="#C5C5D1"/>
<path d="M47.8442 134.87L48.9105 134.293L48.1386 133.025L48.9762 132.572L48.3826 131.597L47.5451 132.049L44.8895 127.685L43.3137 128.537C43.2979 130.359 43.338 132.358 43.4363 134.282L44.0243 135.249L47.0723 133.601L47.8442 134.87ZM44.4836 133.741L44.4418 133.672C44.3635 132.223 44.3405 130.611 44.3497 129.23L44.4144 129.195L46.5127 132.644L44.4836 133.741Z" fill="#C5C5D1"/>
<path d="M52.1529 132.541L53.2668 131.939L49.2457 125.33L48.1362 125.93L47.2471 128.023L47.9242 129.136L48.7663 127.135L48.8397 127.096L52.1529 132.541Z" fill="#C5C5D1"/>
<path fill-rule="evenodd" clip-rule="evenodd" d="M206.495 39.2469L205.864 39.5883C205.515 39.7768 205.415 40.2296 205.64 40.5996L209.173 46.4057C209.398 46.7757 209.863 46.9229 210.212 46.7343L210.844 46.393C211.192 46.2044 211.293 45.7517 211.067 45.3817L207.535 39.5755C207.31 39.2055 206.844 39.0584 206.495 39.2469ZM203.868 42.7445L204.499 42.4031C204.848 42.2146 205.313 42.3617 205.539 42.7317L208.12 46.9747C208.345 47.3447 208.245 47.7975 207.896 47.986L207.265 48.3273C206.916 48.5159 206.451 48.3688 206.226 47.9988L203.644 43.7558C203.419 43.3858 203.519 42.933 203.868 42.7445ZM202.503 45.5594L201.872 45.9007C201.523 46.0893 201.423 46.542 201.648 46.912L203.279 49.5918C203.504 49.9618 203.969 50.1089 204.318 49.9204L204.949 49.579C205.298 49.3905 205.398 48.9377 205.173 48.5677L203.543 45.888C203.317 45.518 202.852 45.3709 202.503 45.5594ZM200.371 48.4923L199.74 48.8336C199.391 49.0222 199.291 49.4749 199.516 49.8449L200.331 51.1848C200.556 51.5548 201.022 51.7019 201.37 51.5134L202.002 51.172C202.351 50.9835 202.451 50.5307 202.226 50.1608L201.411 48.8209C201.185 48.4509 200.72 48.3038 200.371 48.4923Z" fill="#C5C5D1"/>
<path fill-rule="evenodd" clip-rule="evenodd" d="M215.975 36.0176C217.375 35.2612 219.068 35.1041 220.704 35.5788C220.829 35.6165 220.95 35.5495 220.977 35.4286L221.231 34.2524C221.244 34.1912 221.232 34.1246 221.197 34.0674C221.162 34.0103 221.106 33.9672 221.043 33.9479C216.735 32.6805 212.535 34.9504 211.52 39.0955C211.506 39.1566 211.517 39.2232 211.552 39.2807C211.586 39.3382 211.641 39.3819 211.704 39.402L212.91 39.7889C213.034 39.8286 213.156 39.7636 213.185 39.6432C213.577 38.072 214.576 36.774 215.975 36.0176ZM217.522 38.5604C218.291 38.1447 219.217 38.0471 220.12 38.2865C220.245 38.3226 220.365 38.2552 220.392 38.1348L220.645 36.9591C220.659 36.8973 220.646 36.8302 220.61 36.7727C220.575 36.7152 220.519 36.6721 220.455 36.6531C217.677 35.8786 214.99 37.3314 214.296 39.9822C214.281 40.0435 214.293 40.1108 214.327 40.1689C214.362 40.227 214.417 40.271 214.48 40.2912L215.685 40.6787C215.809 40.7179 215.931 40.654 215.961 40.5346C216.198 39.6796 216.754 38.976 217.522 38.5604ZM220.024 39.4816C220.061 39.539 220.073 39.6065 220.059 39.6682L219.619 41.7003C219.606 41.76 219.569 41.8096 219.517 41.838C219.464 41.8665 219.4 41.8714 219.339 41.8517L217.256 41.1832C217.192 41.1637 217.137 41.1193 217.103 41.0608C217.068 41.0022 217.059 40.9345 217.076 40.8738C217.441 39.7155 218.621 39.0778 219.867 39.3652C219.931 39.3822 219.988 39.4243 220.024 39.4816Z" fill="#C5C5D1"/>
<path opacity="0.4" fill-rule="evenodd" clip-rule="evenodd" d="M225.044 29.815L235.57 24.1257C236.151 23.8115 236.926 24.0567 237.302 24.6734L239.747 28.693C240.123 29.3097 239.955 30.0643 239.374 30.3785L228.848 36.0678C228.267 36.382 227.492 36.1368 227.116 35.5202L224.671 31.5005C224.295 30.8839 224.462 30.1292 225.044 29.815ZM224.039 31.8419C223.439 30.8552 223.706 29.6478 224.636 29.1451L235.162 23.4558C236.092 22.9531 237.333 23.3454 237.933 24.332L240.379 28.3517C240.979 29.3383 240.712 30.5457 239.782 31.0484L229.256 36.7377C228.326 37.2405 227.085 36.8482 226.485 35.8615L224.039 31.8419ZM240.626 25.5472C240.982 26.1322 240.973 26.8388 240.603 27.3404L238.972 24.6607C239.619 24.6129 240.27 24.9623 240.626 25.5472Z" fill="#C5C5D1"/>
<rect width="13.5164" height="5.50668" rx="1.00121" transform="matrix(0.841045 -0.454591 0.542856 0.892169 225.03 30.7126)" fill="#C5C5D1"/>
<defs>
<filter id="filter0_bd_14_9213" x="264.988" y="464.429" width="347.942" height="252.76" filterUnits="userSpaceOnUse" color-interpolation-filters="sRGB">
<feFlood flood-opacity="0" result="BackgroundImageFix"/>
<feGaussianBlur in="BackgroundImageFix" stdDeviation="22.4522"/>
<feComposite in2="SourceAlpha" operator="in" result="effect1_backgroundBlur_14_9213"/>
<feColorMatrix in="SourceAlpha" type="matrix" values="0 0 0 0 0 0 0 0 0 0 0 0 0 0 0 0 0 0 127 0" result="hardAlpha"/>
<feOffset dy="-0.225273"/>
<feComposite in2="hardAlpha" operator="out"/>
<feColorMatrix type="matrix" values="0 0 0 0 0.682353 0 0 0 0 0.682353 0 0 0 0 0.705882 0 0 0 1 0"/>
<feBlend mode="normal" in2="effect1_backgroundBlur_14_9213" result="effect2_dropShadow_14_9213"/>
<feBlend mode="normal" in="SourceGraphic" in2="effect2_dropShadow_14_9213" result="shape"/>
</filter>
</defs>
</svg>
