<svg width="17" height="17" viewBox="0 0 17 17" fill="none" xmlns="http://www.w3.org/2000/svg">
<g clip-path="url(#clip0_0_1056)">
<path d="M6.1681 5.2514L3.45607 6.71727C3.25057 6.82835 3.10617 7.02148 3.05465 7.25417C3.00313 7.48686 3.04871 7.74006 3.18135 7.95805L6.68232 13.7118C6.81496 13.9298 7.02381 14.0947 7.26292 14.1703C7.50203 14.246 7.75181 14.226 7.95732 14.1149L13.3814 11.1832C13.5869 11.0721 13.7313 10.879 13.7828 10.6463C13.8343 10.4136 13.7887 10.1604 13.6561 9.94242L11.9056 7.06555" stroke="#C5C5D1" stroke-width="0.901094" stroke-linecap="round" stroke-linejoin="round"/>
<path d="M8.69871 3.06435C8.75336 2.81754 8.90652 2.6127 9.12449 2.49489C9.34246 2.37707 9.60739 2.35593 9.86101 2.43612C10.1146 2.51631 10.3361 2.69126 10.4768 2.92248C10.6175 3.15371 10.6659 3.42226 10.6112 3.66907L9.30627 9.56279L8.00662 10.8114L7.39377 8.95807L8.69871 3.06435Z" stroke="#C5C5D1" stroke-width="0.901094" stroke-linecap="round" stroke-linejoin="round"/>
</g>
<defs>
<clipPath id="clip0_0_1056">
<rect width="12.0146" height="12.0146" rx="1.50182" transform="matrix(0.859914 -0.46479 0.555035 0.912185 0 5.58425)" fill="white"/>
</clipPath>
</defs>
</svg>
