<svg width="16" height="16" viewBox="0 0 16 16" fill="none" xmlns="http://www.w3.org/2000/svg">
<path d="M3 4.40002H4.2H13.8" stroke="white" stroke-width="1.2" stroke-linecap="round" stroke-linejoin="round"/>
<path d="M12.6 4.4V12.8C12.6 13.1183 12.4735 13.4235 12.2485 13.6485C12.0234 13.8736 11.7182 14 11.4 14H5.39995C5.08169 14 4.77647 13.8736 4.55142 13.6485C4.32638 13.4235 4.19995 13.1183 4.19995 12.8V4.4M5.99995 4.4V3.2C5.99995 2.88174 6.12638 2.57652 6.35142 2.35147C6.57647 2.12643 6.88169 2 7.19995 2H9.59995C9.91821 2 10.2234 2.12643 10.4485 2.35147C10.6735 2.57652 10.8 2.88174 10.8 3.2V4.4" stroke="#C5C5D1" stroke-width="1.2" stroke-linecap="round" stroke-linejoin="round"/>
<path d="M7.19995 7.40002V11" stroke="#C5C5D1" stroke-width="1.2" stroke-linecap="round" stroke-linejoin="round"/>
<path d="M9.6001 7.40002V11" stroke="#C5C5D1" stroke-width="1.2" stroke-linecap="round" stroke-linejoin="round"/>
</svg>
