<svg width="15" height="11" viewBox="0 0 15 11" fill="none" xmlns="http://www.w3.org/2000/svg">
<path d="M12.5034 1.17601C12.4994 1.16875 12.4928 1.16306 12.4847 1.15996C11.5521 0.758815 10.5679 0.47277 9.55686 0.308979C9.54767 0.307378 9.53818 0.308533 9.52974 0.31228C9.52129 0.316027 9.51432 0.322174 9.50982 0.329849C9.37581 0.557876 9.25416 0.792097 9.14533 1.03162C8.05543 0.876514 6.94681 0.876514 5.85692 1.03162C5.74737 0.791489 5.62377 0.557209 5.48668 0.329849C5.48198 0.322341 5.47497 0.316335 5.46658 0.312613C5.45818 0.30889 5.44879 0.307624 5.43961 0.308979C4.42842 0.472426 3.44421 0.758492 2.51173 1.15998C2.50375 1.16315 2.49702 1.16857 2.49246 1.17548C0.6277 3.7862 0.116873 6.33273 0.367467 8.84773C0.368172 8.85389 0.370192 8.85986 0.373407 8.86528C0.376622 8.87069 0.380966 8.87545 0.386181 8.87926C1.47201 9.63299 2.68653 10.2083 3.9779 10.5807C3.98699 10.5832 3.99671 10.5831 4.00573 10.5804C4.01475 10.5776 4.02265 10.5723 4.02837 10.5652C4.30572 10.2114 4.55149 9.83674 4.76315 9.44506C4.76606 9.43968 4.76772 9.43379 4.76802 9.42777C4.76832 9.42175 4.76726 9.41574 4.76491 9.41013C4.76255 9.40452 4.75896 9.39945 4.75436 9.39524C4.74976 9.39103 4.74426 9.38778 4.73822 9.38571C4.35067 9.24669 3.97548 9.07911 3.61617 8.88454C3.60964 8.88094 3.60416 8.87589 3.60021 8.86984C3.59626 8.86378 3.59396 8.85691 3.59351 8.84982C3.59306 8.84274 3.59448 8.83566 3.59765 8.82921C3.60081 8.82276 3.60562 8.81714 3.61165 8.81285C3.68704 8.75989 3.76248 8.70481 3.83448 8.64917C3.84087 8.64423 3.84861 8.64106 3.85682 8.64003C3.86504 8.63899 3.87339 8.64012 3.88095 8.6433C6.23496 9.65047 8.7835 9.65047 11.1096 8.6433C11.1172 8.63992 11.1257 8.63863 11.134 8.63957C11.1423 8.64052 11.1502 8.64366 11.1567 8.64864C11.2287 8.70428 11.3041 8.75989 11.3801 8.81285C11.3862 8.8171 11.391 8.82268 11.3942 8.82911C11.3974 8.83553 11.3989 8.8426 11.3985 8.84968C11.3981 8.85677 11.3959 8.86366 11.392 8.86973C11.3881 8.87581 11.3826 8.8809 11.3761 8.88454C11.0176 9.08075 10.6421 9.24822 10.2536 9.38518C10.2475 9.38733 10.242 9.39065 10.2375 9.39493C10.2329 9.3992 10.2293 9.40434 10.227 9.40999C10.2247 9.41564 10.2237 9.42169 10.2241 9.42773C10.2244 9.43377 10.2261 9.43968 10.2291 9.44506C10.4443 9.83456 10.6897 10.2087 10.9633 10.5646C10.9689 10.5719 10.9767 10.5773 10.9858 10.5802C10.9948 10.5831 11.0046 10.5832 11.0138 10.5806C12.3075 10.2095 13.5241 9.63413 14.6113 8.87926C14.6166 8.87564 14.621 8.871 14.6242 8.86565C14.6275 8.86031 14.6294 8.85438 14.63 8.84826C14.93 5.94066 14.1277 3.415 12.5034 1.17601ZM5.1147 7.31636C4.40597 7.31636 3.822 6.70662 3.822 5.95779C3.822 5.20896 4.39464 4.59918 5.1147 4.59918C5.84038 4.59918 6.4187 5.21426 6.40738 5.95774C6.40738 6.70662 5.83471 7.31636 5.1147 7.31636ZM9.8942 7.31636C9.18549 7.31636 8.60152 6.70662 8.60152 5.95779C8.60152 5.20896 9.17417 4.59918 9.8942 4.59918C10.6199 4.59918 11.1982 5.21426 11.1869 5.95774C11.1869 6.70662 10.6199 7.31636 9.8942 7.31636Z" fill="#C5C5D1" stroke="#C5C5D1" stroke-width="0.6"/>
</svg>
