<svg width="32" height="32" viewBox="0 0 32 32" fill="none" xmlns="http://www.w3.org/2000/svg">
<path d="M16.8937 8.55193C16.8106 8.38605 16.6829 8.24657 16.525 8.1491C16.3671 8.05162 16.1853 8 15.9997 8C15.8142 8 15.6323 8.05162 15.4744 8.1491C15.3165 8.24657 15.1888 8.38605 15.1057 8.55193L8.1057 22.5519C8.01885 22.7255 7.98439 22.9206 8.00653 23.1135C8.02867 23.3063 8.10645 23.4885 8.23039 23.6379C8.35433 23.7873 8.51907 23.8974 8.70451 23.9547C8.88994 24.0121 9.08806 24.0143 9.2747 23.9609L14.2747 22.5319C14.4837 22.4722 14.6675 22.3459 14.7983 22.1723C14.9291 21.9988 14.9998 21.7873 14.9997 21.5699V16.9989C14.9997 16.7337 15.1051 16.4794 15.2926 16.2918C15.4801 16.1043 15.7345 15.9989 15.9997 15.9989C16.2649 15.9989 16.5193 16.1043 16.7068 16.2918C16.8943 16.4794 16.9997 16.7337 16.9997 16.9989V21.5699C16.9996 21.7873 17.0703 21.9988 17.2011 22.1723C17.3319 22.3459 17.5157 22.4722 17.7247 22.5319L22.7247 23.9599C22.9113 24.0134 23.1094 24.0113 23.2948 23.9541C23.4803 23.8969 23.6451 23.7869 23.7691 23.6377C23.8931 23.4884 23.9711 23.3063 23.9934 23.1135C24.0157 22.9207 23.9814 22.7256 23.8947 22.5519L16.8947 8.55193H16.8937Z" fill="white" stroke="white"/>
</svg>
