<svg width="16" height="16" viewBox="0 0 16 16" fill="none" xmlns="http://www.w3.org/2000/svg">
<path d="M3 4.40002H4.2H13.8" stroke="#C5C5D1" stroke-width="1.2" stroke-linecap="round" stroke-linejoin="round"/>
<path d="M12.6002 4.4V12.8C12.6002 13.1183 12.4738 13.4235 12.2487 13.6485C12.0237 13.8736 11.7185 14 11.4002 14H5.4002C5.08194 14 4.77671 13.8736 4.55167 13.6485C4.32662 13.4235 4.2002 13.1183 4.2002 12.8V4.4M6.0002 4.4V3.2C6.0002 2.88174 6.12662 2.57652 6.35167 2.35147C6.57671 2.12643 6.88194 2 7.2002 2H9.60019C9.91845 2 10.2237 2.12643 10.4487 2.35147C10.6738 2.57652 10.8002 2.88174 10.8002 3.2V4.4" stroke="#C5C5D1" stroke-width="1.2" stroke-linecap="round" stroke-linejoin="round"/>
<path d="M7.2002 7.40002V11" stroke="#C5C5D1" stroke-width="1.2" stroke-linecap="round" stroke-linejoin="round"/>
<path d="M9.6001 7.40002V11" stroke="#C5C5D1" stroke-width="1.2" stroke-linecap="round" stroke-linejoin="round"/>
</svg>
