<svg width="34" height="33" viewBox="0 0 34 33" fill="none" xmlns="http://www.w3.org/2000/svg">
<path d="M12.8014 11.4486L13.2243 24.0568C13.2376 24.3241 13.3206 24.5905 13.4651 24.8295C13.6096 25.0684 13.8107 25.2715 14.0481 25.4185C14.2856 25.5656 14.5513 25.6515 14.8188 25.6677C15.0862 25.684 15.3461 25.6299 15.5726 25.511L26.4821 19.6143C26.7054 19.4901 26.8862 19.306 27.0064 19.0802C27.1266 18.8545 27.1821 18.595 27.1674 18.3275C27.1526 18.06 27.0682 17.7939 26.9224 17.5557C26.7766 17.3175 26.5745 17.1154 26.3364 16.9696L15.0039 10.2581C14.7669 10.1194 14.5043 10.0407 14.2413 10.0298C13.9783 10.0189 13.7238 10.076 13.5024 10.1956C13.2811 10.3153 13.1003 10.4934 12.9775 10.7129C12.8547 10.9324 12.794 11.1857 12.8014 11.4486Z" stroke="white" stroke-width="1.12637" stroke-linecap="round" stroke-linejoin="round"/>
<path d="M16.0394 14.3647L17.7021 17.0973" stroke="white" stroke-width="1.12637" stroke-linecap="round" stroke-linejoin="round"/>
<path d="M19.3648 19.83L19.3712 19.8265" stroke="white" stroke-width="1.12637" stroke-linecap="round" stroke-linejoin="round"/>
</svg>
