<svg width="16" height="16" viewBox="0 0 16 16" fill="none" xmlns="http://www.w3.org/2000/svg">
<path fill-rule="evenodd" clip-rule="evenodd" d="M4.37574 4.37574C4.48826 4.26321 4.64087 4.2 4.8 4.2H7.8H8.4H11.4C11.5591 4.2 11.7117 4.26321 11.8243 4.37574C11.9368 4.48826 12 4.64087 12 4.8V7.8V11.4C12 11.5591 11.9368 11.7117 11.8243 11.8243C11.7117 11.9368 11.5591 12 11.4 12H4.8C4.64087 12 4.48826 11.9368 4.37574 11.8243C4.26321 11.7117 4.2 11.5591 4.2 11.4L4.2 7.8C4.2 7.79978 4.2 7.79956 4.2 7.79934V4.8C4.2 4.64087 4.26321 4.48826 4.37574 4.37574ZM3 7.8V4.8C3 4.32261 3.18964 3.86477 3.52721 3.52721C3.86477 3.18964 4.32261 3 4.8 3H7.8H8.4H11.4C11.8774 3 12.3352 3.18964 12.6728 3.52721C13.0104 3.86477 13.2 4.32261 13.2 4.8V7.8V11.4C13.2 11.8774 13.0104 12.3352 12.6728 12.6728C12.3352 13.0104 11.8774 13.2 11.4 13.2H4.8C4.32261 13.2 3.86477 13.0104 3.52721 12.6728C3.18964 12.3352 3 11.8774 3 11.4V7.8Z" fill="#C5C5D1"/>
</svg>
