<svg width="16" height="16" viewBox="0 0 16 16" fill="none" xmlns="http://www.w3.org/2000/svg">
<path d="M7.4243 3.29697H3.22429C2.90603 3.29697 2.60081 3.42339 2.37576 3.64844C2.15072 3.87348 2.02429 4.17871 2.02429 4.49697V12.897C2.02429 13.2152 2.15072 13.5205 2.37576 13.7455C2.60081 13.9705 2.90603 14.097 3.22429 14.097H11.6243C11.9426 14.097 12.2478 13.9705 12.4728 13.7455C12.6979 13.5205 12.8243 13.2152 12.8243 12.897V8.69697" stroke="#C5C5D1" stroke-width="1.2" stroke-linecap="round" stroke-linejoin="round"/>
<path d="M11.9243 2.39696C12.163 2.15827 12.4867 2.02417 12.8243 2.02417C13.1618 2.02417 13.4856 2.15827 13.7243 2.39696C13.963 2.63566 14.0971 2.9594 14.0971 3.29696C14.0971 3.63453 13.963 3.95827 13.7243 4.19696L8.02427 9.89696L5.62427 10.497L6.22427 8.09696L11.9243 2.39696Z" stroke="#C5C5D1" stroke-width="1.2" stroke-linecap="round" stroke-linejoin="round"/>
</svg>
