<svg width="34" height="33" viewBox="0 0 34 33" fill="none" xmlns="http://www.w3.org/2000/svg">
<g clip-path="url(#clip0_0_5798)">
<path d="M19.0335 19.9158C20.8119 18.9546 21.323 16.646 20.1751 14.7595C19.0273 12.873 16.6551 12.123 14.8767 13.0842C13.0983 14.0454 12.5872 16.354 13.735 18.2405C14.8829 20.1269 17.2551 20.877 19.0335 19.9158Z" stroke="white" stroke-width="1.50182" stroke-linecap="round" stroke-linejoin="round"/>
<path d="M12.3826 8.98526L13.2139 10.3516" stroke="white" stroke-width="1.50182" stroke-linecap="round" stroke-linejoin="round"/>
<path d="M20.6962 22.6484L21.5275 24.0147" stroke="white" stroke-width="1.50182" stroke-linecap="round" stroke-linejoin="round"/>
<path d="M8.71065 13.8932L10.2154 14.369" stroke="white" stroke-width="1.50182" stroke-linecap="round" stroke-linejoin="round"/>
<path d="M23.6947 18.631L25.1994 19.1068" stroke="white" stroke-width="1.50182" stroke-linecap="round" stroke-linejoin="round"/>
<path d="M9.87096 20.329L11.159 19.6328" stroke="white" stroke-width="1.50182" stroke-linecap="round" stroke-linejoin="round"/>
<path d="M22.7512 13.3672L24.0392 12.671" stroke="white" stroke-width="1.50182" stroke-linecap="round" stroke-linejoin="round"/>
<path d="M15.1786 24.5231L15.5028 23.0587" stroke="white" stroke-width="1.50182" stroke-linecap="round" stroke-linejoin="round"/>
<path d="M18.4073 9.94123L18.7315 8.47686" stroke="white" stroke-width="1.50182" stroke-linecap="round" stroke-linejoin="round"/>
</g>
<defs>
<clipPath id="clip0_0_5798">
<rect width="24.0292" height="24.0292" rx="1.50182" transform="matrix(0.857639 -0.46356 0.553567 0.909772 0 11.139)" fill="white"/>
</clipPath>
</defs>
</svg>
