<svg width="468" height="554" viewBox="0 0 468 554" fill="none" xmlns="http://www.w3.org/2000/svg">
<path fill-rule="evenodd" clip-rule="evenodd" d="M195.042 4.9234e-06L212.284 28.3371C206.288 18.4837 203.147 15.4333 199.139 12.8127C195.131 10.1921 190.746 8.80547 186.178 8.71444C181.61 8.6234 177.617 9.41807 168.329 14.4387L195.042 4.9234e-06ZM2.36195e-06 105.422L17.2422 133.759C11.2467 123.905 10.0398 119.809 9.66401 115.226C9.28826 110.642 10.2332 106.374 12.4568 102.612C14.6804 98.8501 17.4245 96.0035 26.7133 90.9829L2.36195e-06 105.422ZM450.745 420.241L467.987 448.578L441.274 463.017C450.563 457.996 453.307 455.15 455.531 451.388C457.754 447.626 458.699 443.358 458.323 438.774C457.948 434.191 456.741 430.095 450.745 420.241ZM272.946 554L255.703 525.663C261.699 535.516 264.84 538.567 268.848 541.187C272.856 543.808 277.241 545.195 281.809 545.286C286.377 545.377 290.37 544.582 299.659 539.561L272.946 554ZM153.416 22.9584C153.695 22.5068 154.116 22.1205 154.736 21.7854L39.7857 83.9171C40.4057 83.582 40.9725 83.4339 41.5266 83.4354C42.0808 83.4369 42.615 83.592 43.1106 83.8953C43.5404 84.1583 43.9427 84.524 44.3229 85.034C47.1077 89.1228 48.8877 90.7694 51.0117 92.0691C53.1923 93.4035 55.5427 94.0859 57.9811 94.0924C60.4195 94.099 62.6685 93.5798 66.8654 91.3113L147.832 47.5484C152.029 45.2799 153.64 43.7127 154.865 41.7258C156.091 39.7389 156.653 37.4822 156.532 35.0344C156.415 32.6503 155.806 30.3707 153.468 26.0403C153.193 25.4735 153.061 24.9615 153.037 24.4791C153.01 23.9228 153.137 23.4099 153.416 22.9584Z" fill="#202123"/>
</svg>
