<svg width="32" height="32" viewBox="0 0 32 32" fill="none" xmlns="http://www.w3.org/2000/svg">
<path d="M15 8.12134H8C7.46957 8.12134 6.96086 8.33205 6.58579 8.70712C6.21071 9.0822 6 9.5909 6 10.1213V24.1213C6 24.6518 6.21071 25.1605 6.58579 25.5356C6.96086 25.9106 7.46957 26.1213 8 26.1213H22C22.5304 26.1213 23.0391 25.9106 23.4142 25.5356C23.7893 25.1605 24 24.6518 24 24.1213V17.1213" stroke="white" stroke-width="2" stroke-linecap="round" stroke-linejoin="round"/>
<path d="M22.5 6.62132C22.8978 6.2235 23.4374 6 24 6C24.5626 6 25.1022 6.2235 25.5 6.62132C25.8978 7.01915 26.1213 7.55871 26.1213 8.12132C26.1213 8.68393 25.8978 9.2235 25.5 9.62132L16 19.1213L12 20.1213L13 16.1213L22.5 6.62132Z" stroke="white" stroke-width="2" stroke-linecap="round" stroke-linejoin="round"/>
</svg>
