<svg width="17" height="17" viewBox="0 0 17 17" fill="none" xmlns="http://www.w3.org/2000/svg">
<path d="M13.8097 3.65141C13.6586 3.05156 13.3838 2.47803 13.0037 1.96913C12.6236 1.46023 12.1469 1.02773 11.6056 0.700588C10.7946 0.201552 9.8716 -0.0417128 8.96979 0.00587411C8.06798 0.0534651 7.23397 0.389459 6.58809 0.965391C6.00395 0.743911 5.39179 0.645592 4.79253 0.677057C4.19326 0.708524 3.62078 0.869007 3.11336 1.14779C2.34566 1.56013 1.75431 2.22035 1.42458 3.03328C1.09484 3.8462 1.04377 4.76981 1.27871 5.67095C0.845347 6.04928 0.507663 6.5246 0.288274 7.06509C0.0688848 7.60558 -0.0271518 8.19876 0.00660404 8.80493C0.0497917 9.7164 0.381354 10.6201 0.95354 11.3858C1.5257 12.1514 2.30886 12.7394 3.19009 13.0649C3.34118 13.6648 3.61595 14.2383 3.99606 14.7472C4.37618 15.2561 4.85283 15.6886 5.39415 16.0158C6.20518 16.5148 7.12815 16.758 8.02997 16.7104C8.93178 16.6628 9.7658 16.3268 10.4117 15.7509C10.9958 15.9724 11.608 16.0707 12.2072 16.0393C12.8065 16.0078 13.379 15.8473 13.8864 15.5686C14.6546 15.1562 15.2463 14.4956 15.576 13.6823C15.9058 12.8689 15.9567 11.9448 15.7213 11.0433C16.1546 10.665 16.4923 10.1897 16.7117 9.64913C16.9311 9.10868 17.0271 8.51546 16.9934 7.90927C16.9498 6.99814 16.6179 6.09485 16.0457 5.32963C15.4736 4.56439 14.6906 3.97677 13.8097 3.65141ZM13.2816 14.5721C12.6526 14.9133 11.9006 15.009 11.1569 14.8425C11.171 14.8181 11.1957 14.7752 11.2108 14.7456L13.0041 11.448C13.0495 11.3659 13.0709 11.2709 13.066 11.1727C13.0612 11.0745 13.0302 10.9767 12.9765 10.8894L10.3745 6.61321L12.0336 6.70023C12.0419 6.70017 12.0504 6.70217 12.0582 6.70607C12.0661 6.70999 12.073 6.71571 12.0784 6.72266L14.2332 10.264C14.6925 11.0209 14.8503 11.8993 14.6719 12.7068C14.4936 13.5143 13.9936 14.185 13.2816 14.5721ZM5.90541 15.0778C5.23841 14.6702 4.71272 14.0545 4.42033 13.3382C4.44979 13.3403 4.5015 13.3443 4.53798 13.3461L8.46342 13.5526C8.56157 13.5583 8.65682 13.5378 8.73936 13.4932C8.82186 13.4486 8.88874 13.3814 8.93313 13.2987L11.1231 9.27357L12.024 10.7541C12.0289 10.7615 12.0322 10.7698 12.0333 10.7783C12.0345 10.7868 12.0336 10.7952 12.0306 10.8028L10.2173 14.1355C9.82887 14.8475 9.15669 15.3465 8.34834 15.5231C7.53997 15.6998 6.6614 15.5396 5.90541 15.0778ZM1.12407 8.8626C1.08589 8.11418 1.31219 7.40307 1.76326 6.85373C1.77916 6.87986 1.8059 6.92689 1.82543 6.959L3.95757 10.4631C4.01032 10.5509 4.08417 10.6254 4.17156 10.6789C4.25892 10.7324 4.35664 10.763 4.45468 10.7675L9.24658 11.0186L8.48842 12.4121C8.48501 12.4195 8.47968 12.4257 8.47299 12.4302C8.4663 12.4348 8.4584 12.4375 8.45002 12.438L4.48108 12.2287C3.63317 12.1831 2.80364 11.8032 2.17434 11.1722C1.54506 10.5412 1.16736 9.71065 1.12407 8.8626ZM12.5453 5.94668L7.75321 5.69536L8.51156 4.30212C8.515 4.29475 8.5203 4.28849 8.52699 4.28396C8.53368 4.27944 8.54157 4.27679 8.54995 4.27621L12.518 4.48405C13.126 4.51605 13.73 4.72061 14.2592 5.0738C14.7884 5.427 15.221 5.91419 15.5063 6.47833C15.7916 7.04248 15.9177 7.66026 15.8701 8.25929C15.8223 8.85833 15.6027 9.41385 15.2369 9.86079C15.2208 9.83436 15.1927 9.78812 15.1731 9.75598L13.041 6.25187C12.9885 6.16414 12.9149 6.08963 12.8278 6.036C12.7407 5.98237 12.6432 5.95155 12.5453 5.94668ZM12.5796 3.37598C12.55 3.37362 12.4985 3.36994 12.462 3.36814L8.53653 3.1616C8.43843 3.15602 8.34324 3.17655 8.2607 3.22116C8.1782 3.26575 8.11129 3.33284 8.06686 3.41546L5.87693 7.44067L4.97605 5.9601C4.97104 5.95273 4.96782 5.94445 4.96666 5.93597C4.96551 5.92748 4.96643 5.91904 4.96938 5.91142L6.78362 2.58017C7.06162 2.06996 7.48801 1.66475 8.01286 1.41197C8.53772 1.15918 9.13932 1.06929 9.74736 1.15276C10.3554 1.23625 10.9446 1.48967 11.4462 1.88339C11.9478 2.2771 12.3409 2.79479 12.5796 3.37598ZM6.62324 10.1023L4.9639 10.0154C4.95555 10.0155 4.94704 10.0135 4.93922 10.0095C4.93139 10.0056 4.92444 9.99993 4.91903 9.99293L2.76423 6.45157C2.43454 5.90901 2.25737 5.29904 2.25345 4.69307C2.24956 4.08709 2.41909 3.51018 2.7422 3.02988C3.06531 2.54958 3.52863 2.18577 4.07793 1.981C4.62727 1.77622 5.23983 1.73899 5.84394 1.87365C5.82983 1.89804 5.8054 1.94078 5.79007 1.97062L3.99675 5.26819C3.95131 5.35025 3.92993 5.4452 3.93473 5.54334C3.93956 5.64144 3.97045 5.73917 4.02416 5.82644L6.62324 10.1023ZM6.36607 8.24582L7.34129 6.4528L9.47536 6.56441L10.6342 8.46902L9.65872 10.2614L7.52459 10.1498L6.36607 8.24582Z" fill="white"/>
</svg>
