<svg width="16" height="16" viewBox="0 0 16 16" fill="none" xmlns="http://www.w3.org/2000/svg">
<path d="M11.5391 5.00745C11.5742 4.9018 11.5792 4.78846 11.5536 4.68012C11.528 4.57178 11.4727 4.47271 11.394 4.39399C11.3153 4.31527 11.2162 4.26 11.1079 4.23437C10.9995 4.20874 10.8862 4.21376 10.7805 4.24886L1.87099 7.2187C1.76049 7.2555 1.66309 7.32366 1.59067 7.41487C1.51825 7.50608 1.47394 7.61639 1.46314 7.73235C1.45235 7.84831 1.47554 7.96491 1.52988 8.06792C1.58422 8.17093 1.66736 8.25589 1.76917 8.31246L4.49676 9.82751C4.61078 9.89081 4.74232 9.91524 4.87147 9.89709C5.00061 9.87895 5.12033 9.81922 5.21249 9.72695L7.1518 7.78765C7.26433 7.67512 7.41694 7.61191 7.57607 7.61191C7.7352 7.61191 7.88781 7.67512 8.00033 7.78765C8.11285 7.90017 8.17607 8.05278 8.17607 8.21191C8.17607 8.37104 8.11285 8.52365 8.00033 8.63617L6.06102 10.5755C5.96876 10.6676 5.90903 10.7874 5.89089 10.9165C5.87274 11.0457 5.89717 11.1772 5.96047 11.2912L7.47595 14.0184C7.53244 14.1202 7.61734 14.2034 7.7203 14.2578C7.82325 14.3122 7.93982 14.3355 8.05577 14.3248C8.17172 14.3141 8.28205 14.2698 8.37331 14.1975C8.46457 14.1252 8.5328 14.0279 8.5697 13.9174L11.5391 5.00745Z" stroke="#C5C5D1"/>
</svg>
