<svg width="17" height="17" viewBox="0 0 17 17" fill="none" xmlns="http://www.w3.org/2000/svg">
<g clip-path="url(#clip0_0_1238)">
<path d="M6.31281 8.90795L5.61191 4.37148C5.92017 4.20486 6.29485 4.17497 6.65351 4.28837C7.01217 4.40178 7.32545 4.6492 7.52441 4.97619L8.52469 6.62012L10.7175 5.43487C10.829 5.37281 10.9553 5.33724 11.0874 5.33064C11.2196 5.32404 11.3545 5.34656 11.483 5.39664C11.6114 5.44671 11.7302 5.52315 11.8311 5.62065C11.9321 5.71815 12.0127 5.83439 12.0676 5.9613L13.7835 9.94912C13.8748 10.1603 13.8896 10.3897 13.8254 10.595C13.7611 10.8004 13.622 10.9678 13.4338 11.0666L9.06358 13.4287M6.31281 8.90795L9.06358 13.4287M6.31281 8.90795L5.15052 9.53618C4.94502 9.64725 4.80062 9.84038 4.7491 10.0731C4.69758 10.3058 4.74315 10.559 4.8758 10.777L6.62628 13.6538C6.75893 13.8718 6.96778 14.0368 7.20689 14.1124C7.446 14.188 7.69578 14.1681 7.90128 14.057L9.06358 13.4287" stroke="#C5C5D1" stroke-width="0.901092" stroke-linecap="round" stroke-linejoin="round"/>
</g>
<defs>
<clipPath id="clip0_0_1238">
<rect width="12.0146" height="12.0146" rx="1.50182" transform="matrix(0.859914 -0.46479 0.555035 0.912185 0 5.58425)" fill="white"/>
</clipPath>
</defs>
</svg>
