<svg width="6" height="7" viewBox="0 0 6 7" fill="none" xmlns="http://www.w3.org/2000/svg">
<path d="M2.99058 6.75724L5.67491 5.30634C6.03865 5.10974 6.09981 4.8223 5.84501 4.40355L4.50916 2.2081C4.27984 1.83123 4.01492 1.71606 3.69319 1.84623L3.23456 1.09248C2.54844 -0.0351472 1.52074 -0.20308 0.78199 0.196221C0.0432374 0.595523 -0.321986 1.51634 0.364141 2.64397L0.831873 3.41267C0.582845 3.6069 0.527323 3.89129 0.742079 4.24424L2.07794 6.43968C2.33273 6.85843 2.62685 6.95384 2.99058 6.75724ZM0.779889 2.33578C0.323077 1.58503 0.534988 0.941843 1.06227 0.656845C1.58954 0.371848 2.28557 0.524287 2.74238 1.27504L3.23741 2.08861L1.27674 3.15235L0.779889 2.33578Z" fill="#C5C5D1"/>
</svg>
