<svg width="17" height="17" viewBox="0 0 17 17" fill="none" xmlns="http://www.w3.org/2000/svg">
<g clip-path="url(#clip0_0_3705)">
<path d="M3.77103 7.55106L4.5459 7.13225L10.7448 3.78169" stroke="white" stroke-width="0.901093" stroke-linecap="round" stroke-linejoin="round"/>
<path d="M9.96993 4.20051L13.4709 9.95425C13.6035 10.1723 13.6491 10.4254 13.5976 10.6581C13.5461 10.8908 13.4017 11.084 13.1962 11.195L9.32186 13.2891C9.11636 13.4002 8.86657 13.4201 8.62747 13.3445C8.38836 13.2689 8.17951 13.104 8.04686 12.886L4.54589 7.13224M5.70819 6.50401L5.20805 5.68205C5.0754 5.46405 5.02983 5.21086 5.08135 4.97816C5.13287 4.74547 5.27727 4.55234 5.48277 4.44127L7.0325 3.60363C7.238 3.49255 7.48779 3.47262 7.72689 3.54823C7.966 3.62383 8.17485 3.78878 8.3075 4.00677L8.80764 4.82874" stroke="#C5C5D1" stroke-width="0.901093" stroke-linecap="round" stroke-linejoin="round"/>
<path d="M7.7334 8.1401L9.23382 10.606" stroke="#C5C5D1" stroke-width="0.901093" stroke-linecap="round" stroke-linejoin="round"/>
<path d="M9.28312 7.30247L10.7835 9.76836" stroke="#C5C5D1" stroke-width="0.901093" stroke-linecap="round" stroke-linejoin="round"/>
</g>
<defs>
<clipPath id="clip0_0_3705">
<rect width="12.0146" height="12.0146" rx="1.50182" transform="matrix(0.859914 -0.46479 0.555035 0.912185 0 5.58425)" fill="white"/>
</clipPath>
</defs>
</svg>
