<svg width="24" height="24" viewBox="0 0 24 24" fill="none" xmlns="http://www.w3.org/2000/svg">
<mask id="path-1-inside-1_0_108" fill="white">
<path d="M17.5469 15.3906C18.1328 15.3906 18.4844 14.6094 18.0156 14.1406L6.92188 2.73438C6.49219 2.26562 5.75 2.57812 5.75 3.24219V20C5.75 20.625 6.45312 20.9766 6.92188 20.5078L10.2812 17.0312L12.3516 22.0703C12.5078 22.4219 12.9375 22.6172 13.2891 22.4609L15.2031 21.6406C15.5547 21.4844 15.7109 21.0547 15.5547 20.7031L13.4062 15.3906H17.5469Z"/>
</mask>
<path d="M17.5469 15.3906C18.1328 15.3906 18.4844 14.6094 18.0156 14.1406L6.92188 2.73438C6.49219 2.26562 5.75 2.57812 5.75 3.24219V20C5.75 20.625 6.45312 20.9766 6.92188 20.5078L10.2812 17.0312L12.3516 22.0703C12.5078 22.4219 12.9375 22.6172 13.2891 22.4609L15.2031 21.6406C15.5547 21.4844 15.7109 21.0547 15.5547 20.7031L13.4062 15.3906H17.5469Z" fill="#333333"/>
<path d="M18.0156 14.1406L17.2987 14.8379L17.3085 14.8477L18.0156 14.1406ZM6.92188 2.73438L6.18472 3.4101L6.19471 3.421L6.20502 3.43159L6.92188 2.73438ZM6.92188 20.5078L7.62898 21.2149L7.63504 21.2089L7.641 21.2027L6.92188 20.5078ZM10.2812 17.0312L11.2062 16.6512L10.625 15.2365L9.56213 16.3364L10.2812 17.0312ZM12.3516 22.0703L11.4266 22.4503L11.432 22.4635L11.4378 22.4765L12.3516 22.0703ZM13.2891 22.4609L12.8951 21.5417L12.8829 21.5471L13.2891 22.4609ZM15.2031 21.6406L15.5971 22.5599L15.6093 22.5544L15.2031 21.6406ZM15.5547 20.7031L14.6276 21.078L14.634 21.0938L14.6409 21.1093L15.5547 20.7031ZM13.4062 15.3906V14.3906H11.9232L12.4792 15.7655L13.4062 15.3906ZM17.5469 16.3906C19.0546 16.3906 19.7995 14.5103 18.7227 13.4335L17.3085 14.8477C17.2775 14.8167 17.2475 14.7646 17.2369 14.7023C17.2273 14.6465 17.236 14.6004 17.2495 14.5669C17.2702 14.5158 17.3588 14.3906 17.5469 14.3906V16.3906ZM18.7325 13.4434L7.63873 2.03716L6.20502 3.43159L17.2988 14.8378L18.7325 13.4434ZM7.65903 2.05865C7.14315 1.49587 6.39123 1.38276 5.78089 1.64433C5.17597 1.90358 4.75 2.50793 4.75 3.24219H6.75C6.75 3.31238 6.69512 3.42845 6.56872 3.48262C6.51064 3.50752 6.43767 3.51857 6.35961 3.50281C6.27645 3.48602 6.21631 3.44457 6.18472 3.4101L7.65903 2.05865ZM4.75 3.24219V20H6.75V3.24219H4.75ZM4.75 20C4.75 20.7074 5.15721 21.3044 5.7435 21.5731C6.35242 21.8522 7.09483 21.7491 7.62898 21.2149L6.21477 19.8007C6.23444 19.781 6.28602 19.7436 6.36775 19.7292C6.44532 19.7156 6.51869 19.7284 6.57681 19.755C6.69435 19.8089 6.75 19.9176 6.75 20H4.75ZM7.641 21.2027L11.0004 17.7261L9.56213 16.3364L6.20275 19.8129L7.641 21.2027ZM9.35628 17.4113L11.4266 22.4503L13.2765 21.6903L11.2062 16.6512L9.35628 17.4113ZM11.4378 22.4765C11.7889 23.2665 12.7752 23.7836 13.6952 23.3747L12.8829 21.5471C12.9957 21.497 13.0926 21.5162 13.141 21.5369C13.1863 21.5563 13.2344 21.5945 13.2654 21.6642L11.4378 22.4765ZM13.683 23.3801L15.597 22.5598L14.8092 20.7215L12.8951 21.5418L13.683 23.3801ZM15.6093 22.5544C16.4853 22.1651 16.8402 21.1332 16.4685 20.297L14.6409 21.1093C14.6063 21.0315 14.6102 20.9553 14.6319 20.8969C14.654 20.8373 14.7062 20.7672 14.797 20.7268L15.6093 22.5544ZM16.4817 20.3282L14.3333 15.0157L12.4792 15.7655L14.6276 21.078L16.4817 20.3282ZM13.4062 16.3906H17.5469V14.3906H13.4062V16.3906Z" fill="white" mask="url(#path-1-inside-1_0_108)"/>
</svg>
